<?xml version="1.0" encoding="UTF-8"?>
<!DOCTYPE svg PUBLIC "-//W3C//DTD SVG 1.1//EN" "http://www.w3.org/Graphics/SVG/1.1/DTD/svg11.dtd">
<svg xmlns="http://www.w3.org/2000/svg" version="1.1" width="644px" height="549px" style="shape-rendering:geometricPrecision; text-rendering:geometricPrecision; image-rendering:optimizeQuality; fill-rule:evenodd; clip-rule:evenodd" xmlns:xlink="http://www.w3.org/1999/xlink">
<g><path style="opacity:1" fill="#fbfbfb" d="M 315.5,5.5 C 334.349,4.08755 348.015,11.7542 356.5,28.5C 366.127,29.7059 375.794,30.3726 385.5,30.5C 430.502,29.8131 475.502,29.6464 520.5,30C 532.821,34.1084 535.987,41.9417 530,53.5C 527.742,55.4296 525.242,56.9296 522.5,58C 467.164,58.1667 411.83,58.6667 356.5,59.5C 353.295,66.5399 348.461,72.2066 342,76.5C 341.83,116.738 341.33,156.904 340.5,197C 340.843,299.462 341.176,401.962 341.5,504.5C 379.873,504.031 418.207,504.531 456.5,506C 473.801,512.127 482.634,524.293 483,542.5C 429.237,543.166 375.403,543.499 321.5,543.5C 267.359,543.665 213.359,543.165 159.5,542C 160.99,524.349 169.99,512.349 186.5,506C 225.127,504.53 263.793,504.03 302.5,504.5C 301.97,371.118 301.97,237.784 302.5,104.5C 302.533,95.1325 302.033,85.7991 301,76.5C 294.539,72.2066 289.705,66.5399 286.5,59.5C 231.17,58.6667 175.836,58.1667 120.5,58C 110.617,53.5412 107.784,46.3745 112,36.5C 113.873,34.2911 116.04,32.4578 118.5,31C 130.666,30.4861 142.833,29.9861 155,29.5C 198.125,29.8424 241.125,30.1757 284,30.5C 288.426,24.3998 293.26,18.5665 298.5,13C 304.001,9.91131 309.668,7.41131 315.5,5.5 Z"/></g>
<g><path style="opacity:1" fill="#fdfdfd" d="M 458.5,229.5 C 458.842,228.662 459.508,228.328 460.5,228.5C 475.164,230.833 489.831,233.166 504.5,235.5C 504.5,187.5 504.5,139.5 504.5,91.5C 513.833,91.5 523.167,91.5 532.5,91.5C 533.109,139.024 533.109,187.024 532.5,235.5C 548.161,232.666 563.827,230.166 579.5,228C 559.33,261.654 538.997,295.154 518.5,328.5C 498.238,295.639 478.238,262.639 458.5,229.5 Z"/></g>
<g><path style="opacity:1" fill="#fdfdfd" d="M 160.5,171.5 C 159.957,171.56 159.624,171.893 159.5,172.5C 166.803,173.497 174.137,173.831 181.5,173.5C 188.336,175.107 192.502,179.441 194,186.5C 201.559,226.853 209.226,267.187 217,307.5C 219.395,319.384 214.728,326.718 203,329.5C 154.897,328.236 107.063,328.236 59.5,329.5C 48.5678,329.725 41.9011,324.559 39.5,314C 47.9543,269.395 56.7877,224.895 66,180.5C 68.6141,176.699 72.1141,174.366 76.5,173.5C 83.8635,173.831 91.1968,173.497 98.5,172.5C 98.3764,171.893 98.0431,171.56 97.5,171.5C 86.2278,153.982 87.2278,137.149 100.5,121C 119.487,105.668 138.487,105.668 157.5,121C 170.693,137.204 171.693,154.037 160.5,171.5 Z M 127.5,127.5 C 142.263,128.761 149.43,136.761 149,151.5C 144.141,167.178 133.974,172.011 118.5,166C 107.577,157.553 105.743,147.386 113,135.5C 116.853,130.845 121.686,128.178 127.5,127.5 Z"/></g>
<g><path style="opacity:1" fill="#d4d4d4" d="M 97.5,171.5 C 98.0431,171.56 98.3764,171.893 98.5,172.5C 91.1968,173.497 83.8635,173.831 76.5,173.5C 83.5,172.833 90.5,172.167 97.5,171.5 Z"/></g>
<g><path style="opacity:1" fill="#dcdcdc" d="M 160.5,171.5 C 167.5,172.167 174.5,172.833 181.5,173.5C 174.137,173.831 166.803,173.497 159.5,172.5C 159.624,171.893 159.957,171.56 160.5,171.5 Z"/></g>
<g><path style="opacity:1" fill="#bdbdbd" d="M 460.5,228.5 C 459.508,228.328 458.842,228.662 458.5,229.5C 457.115,228.698 457.282,228.031 459,227.5C 459.765,227.57 460.265,227.903 460.5,228.5 Z"/></g>
<g><path style="opacity:1" fill="#fdfdfd" d="M 7.5,351.5 C 86.1695,351.167 164.836,351.5 243.5,352.5C 240.591,359.921 235.924,366.087 229.5,371C 210.443,382.687 189.776,390.02 167.5,393C 123.824,400.02 81.1577,396.02 39.5,381C 28.6668,376.831 19.5001,370.331 12,361.5C 9.68203,358.531 8.18203,355.198 7.5,351.5 Z"/></g>
<g><path style="opacity:1" fill="#fdfdfd" d="M 399.5,352.5 C 478.332,351.334 557.332,351.168 636.5,352C 633.318,360.352 627.985,367.018 620.5,372C 602.028,383.159 582.028,390.159 560.5,393C 518.693,399.289 477.693,395.956 437.5,383C 425.44,378.893 414.94,372.393 406,363.5C 403.539,359.904 401.373,356.237 399.5,352.5 Z"/></g>
</svg>
