<?xml version="1.0" encoding="UTF-8"?>
<!DOCTYPE svg PUBLIC "-//W3C//DTD SVG 1.1//EN" "http://www.w3.org/Graphics/SVG/1.1/DTD/svg11.dtd">
<svg xmlns="http://www.w3.org/2000/svg" version="1.1" width="627px" height="619px" style="shape-rendering:geometricPrecision; text-rendering:geometricPrecision; image-rendering:optimizeQuality; fill-rule:evenodd; clip-rule:evenodd" xmlns:xlink="http://www.w3.org/1999/xlink">
<g><path style="opacity:1" fill="#fdfdfd" d="M 309.5,85.5 C 309.414,84.5041 309.748,83.6708 310.5,83C 306.554,82.467 303.388,80.6337 301,77.5C 299.636,78.2583 298.469,77.7583 297.5,76C 296.207,75.51 294.873,75.3433 293.5,75.5C 280.097,65.4966 277.931,53.4966 287,39.5C 303.334,25.4175 322.167,16.2509 343.5,12C 382.84,3.60234 421.84,4.93568 460.5,16C 472.173,20.0037 483.173,25.337 493.5,32C 497.702,35.8666 501.535,40.0332 505,44.5C 510.112,56.8356 507.279,67.0023 496.5,75C 484.727,83.7192 471.727,90.0525 457.5,94C 416.604,104.918 375.604,105.251 334.5,95C 325.865,92.5124 317.532,89.3457 309.5,85.5 Z"/></g>
<g><path style="opacity:1" fill="#fefefd" d="M 520.5,81.5 C 521.499,150.665 521.833,219.998 521.5,289.5C 488.34,279.857 455.006,279.191 421.5,287.5C 420.833,276.167 420.167,264.833 419.5,253.5C 416.77,234.207 406.77,220.041 389.5,211C 348.958,189.632 308.291,168.465 267.5,147.5C 266.334,124.174 266.167,100.84 267,77.5C 269.364,83.7286 272.864,89.2286 277.5,94C 296.52,108.505 317.853,118.172 341.5,123C 387.676,132.304 433.009,129.304 477.5,114C 490.548,108.731 502.382,101.564 513,92.5C 516.005,89.1512 518.505,85.4845 520.5,81.5 Z"/></g>
<g><path style="opacity:1" fill="#ebebeb" d="M 293.5,75.5 C 294.873,75.3433 296.207,75.51 297.5,76C 298.469,77.7583 299.636,78.2583 301,77.5C 303.388,80.6337 306.554,82.467 310.5,83C 309.748,83.6708 309.414,84.5041 309.5,85.5C 303.794,82.6532 298.461,79.3198 293.5,75.5 Z"/></g>
<g><path style="opacity:1" fill="#bababa" d="M 521.5,289.5 C 521.833,219.998 521.499,150.665 520.5,81.5C 520.709,80.0783 521.209,78.745 522,77.5C 522.832,148.335 522.665,219.001 521.5,289.5 Z"/></g>
<g><path style="opacity:1" fill="#fdfdfd" d="M 201.5,142.5 C 260.591,173.074 319.591,203.907 378.5,235C 319.992,266.754 261.326,298.254 202.5,329.5C 143.5,298 84.5,266.5 25.5,235C 84.3545,204.407 143.021,173.574 201.5,142.5 Z"/></g>
<g><path style="opacity:1" fill="#fefefe" d="M 138.5,324.5 C 138.821,326.048 139.821,326.715 141.5,326.5C 157.385,334.693 173.219,343.027 189,351.5C 189.5,413.499 189.667,475.499 189.5,537.5C 188.508,544.982 188.175,552.648 188.5,560.5C 187.167,560.5 185.833,560.5 184.5,560.5C 126.673,530.001 68.8394,499.334 11,468.5C 10.3333,397.833 10.3333,327.167 11,256.5C 53.4476,279.307 95.9476,301.973 138.5,324.5 Z"/></g>
<g><path style="opacity:1" fill="#fdfdfd" d="M 392.5,257.5 C 393.496,270.656 393.829,283.99 393.5,297.5C 373.839,307.826 356.173,320.826 340.5,336.5C 337.86,336.954 335.527,338.121 333.5,340C 334.416,340.278 335.082,340.778 335.5,341.5C 292.586,393.573 281.586,451.739 302.5,516C 273.586,531.706 244.753,547.54 216,563.5C 215.513,550.666 215.013,537.833 214.5,525C 215.802,470.445 215.802,415.778 214.5,361C 215.045,357.813 215.711,354.646 216.5,351.5C 274.903,319.632 333.57,288.299 392.5,257.5 Z"/></g>
<g><path style="opacity:1" fill="#c7c7c7" d="M 419.5,253.5 C 420.167,264.833 420.833,276.167 421.5,287.5C 421.44,288.043 421.107,288.376 420.5,288.5C 419.501,276.852 419.168,265.186 419.5,253.5 Z"/></g>
<g><path style="opacity:1" fill="#c8c8c8" d="M 392.5,257.5 C 392.56,256.957 392.893,256.624 393.5,256.5C 394.826,270.328 394.826,283.994 393.5,297.5C 393.829,283.99 393.496,270.656 392.5,257.5 Z"/></g>
<g><path style="opacity:1" fill="#fefefe" d="M 571.5,350.5 C 570.226,351.189 570.226,352.023 571.5,353C 573.025,354.009 574.692,354.509 576.5,354.5C 617.666,400.83 628.166,453.496 608,512.5C 584.852,565.643 544.685,597.143 487.5,607C 433.067,612.088 387.901,594.255 352,553.5C 313.98,503.332 307.646,449.332 333,391.5C 370.037,326.236 425.87,299.402 500.5,311C 528.116,317.466 551.783,330.632 571.5,350.5 Z"/></g>
<g><path style="opacity:1" fill="#c9c9c9" d="M 138.5,324.5 C 139.71,324.932 140.71,325.599 141.5,326.5C 139.821,326.715 138.821,326.048 138.5,324.5 Z"/></g>
<g><path style="opacity:1" fill="#e1e1e1" d="M 340.5,336.5 C 339.167,338.5 337.5,340.167 335.5,341.5C 335.082,340.778 334.416,340.278 333.5,340C 335.527,338.121 337.86,336.954 340.5,336.5 Z"/></g>
<g><path style="opacity:1" fill="#e3e3e3" d="M 571.5,350.5 C 573.749,351.08 575.415,352.413 576.5,354.5C 574.692,354.509 573.025,354.009 571.5,353C 570.226,352.023 570.226,351.189 571.5,350.5 Z"/></g>
<g><path style="opacity:1" fill="#eaeaea" d="M 189.5,537.5 C 189.666,546.173 189.5,554.84 189,563.5C 187.348,562.601 185.848,561.601 184.5,560.5C 185.833,560.5 187.167,560.5 188.5,560.5C 188.175,552.648 188.508,544.982 189.5,537.5 Z"/></g>
</svg>
