<?xml version="1.0" encoding="UTF-8"?>
<!DOCTYPE svg PUBLIC "-//W3C//DTD SVG 1.1//EN" "http://www.w3.org/Graphics/SVG/1.1/DTD/svg11.dtd">
<svg xmlns="http://www.w3.org/2000/svg" version="1.1" width="480px" height="561px" style="shape-rendering:geometricPrecision; text-rendering:geometricPrecision; image-rendering:optimizeQuality; fill-rule:evenodd; clip-rule:evenodd" xmlns:xlink="http://www.w3.org/1999/xlink">
<g><path style="opacity:1" fill="#fcfcfc" d="M 274.5,1.5 C 307.005,-0.341268 329.505,13.6587 342,43.5C 350.284,78.428 338.451,103.928 306.5,120C 274.399,130.026 248.899,121.192 230,93.5C 218.649,69.538 220.316,46.538 235,24.5C 245.461,12.0248 258.628,4.35813 274.5,1.5 Z M 276.5,33.5 C 297.942,31.6142 310.276,41.2809 313.5,62.5C 310.971,83.8607 298.971,93.694 277.5,92C 262.59,88.0875 254.59,78.4208 253.5,63C 254.708,47.9759 262.375,38.1426 276.5,33.5 Z"/></g>
<g><path style="opacity:1" fill="#fdfdfd" d="M 209.5,74.5 C 215.867,102.707 232.533,122.207 259.5,133C 222.674,166.16 186.174,199.66 150,233.5C 139.859,201.031 118.026,181.531 84.5,175C 126.602,141.961 168.269,108.461 209.5,74.5 Z"/></g>
<g><path style="opacity:1" fill="#fcfcfc" d="M 354.5,79.5 C 374.181,98.848 393.181,118.848 411.5,139.5C 384.33,145.174 366.496,161.174 358,187.5C 339.582,170.083 321.415,152.25 303.5,134C 331.299,125.88 348.299,107.713 354.5,79.5 Z"/></g>
<g><path style="opacity:1" fill="#fbfbfb" d="M 415.5,151.5 C 451.869,151.705 471.869,169.871 475.5,206C 471.538,238.295 453.372,256.128 421,259.5C 388.72,255.553 370.887,237.387 367.5,205C 370.802,175.541 386.802,157.708 415.5,151.5 Z M 415.5,179.5 C 431.289,177.971 441.789,184.638 447,199.5C 449.084,215.836 442.251,226.336 426.5,231C 410.551,232.775 400.384,225.942 396,210.5C 394.46,194.879 400.96,184.546 415.5,179.5 Z"/></g>
<g><path style="opacity:1" fill="#fcfcfc" d="M 67.5,186.5 C 105.213,186.926 129.046,205.259 139,241.5C 143.317,280.372 127.151,306.539 90.5,320C 55.0421,327.08 28.5421,314.913 11,283.5C 0.143421,256.642 3.81009,231.976 22,209.5C 34.4734,196.347 49.64,188.68 67.5,186.5 Z M 65.5,221.5 C 93.2316,220.593 106.398,233.926 105,261.5C 100.784,278.043 90.1172,287.043 73,288.5C 49.1814,285.685 38.1814,272.352 40,248.5C 43.5766,234.759 52.0766,225.759 65.5,221.5 Z"/></g>
<g><path style="opacity:1" fill="#fdfdfd" d="M 147.5,281.5 C 183.302,323.476 218.969,365.642 254.5,408C 214.91,412.924 190.41,434.758 181,473.5C 146.622,427.244 112.122,381.077 77.5,335C 111.744,331.237 135.077,313.403 147.5,281.5 Z"/></g>
<g><path style="opacity:1" fill="#fcfcfc" d="M 249.5,420.5 C 279.125,417.853 301.958,428.853 318,453.5C 331.083,477.85 330.417,501.85 316,525.5C 289.132,557.96 257.299,563.793 220.5,543C 194.164,521.694 186.33,494.861 197,462.5C 207.322,439.327 224.822,425.327 249.5,420.5 Z M 252.5,454.5 C 280.81,453.642 293.976,467.309 292,495.5C 286.463,513.517 274.296,522.017 255.5,521C 234.065,515.979 224.565,502.479 227,480.5C 231.008,467.326 239.508,458.659 252.5,454.5 Z"/></g>
</svg>
