<?xml version="1.0" encoding="UTF-8"?>
<!DOCTYPE svg PUBLIC "-//W3C//DTD SVG 1.1//EN" "http://www.w3.org/Graphics/SVG/1.1/DTD/svg11.dtd">
<svg xmlns="http://www.w3.org/2000/svg" version="1.1" width="561px" height="399px" style="shape-rendering:geometricPrecision; text-rendering:geometricPrecision; image-rendering:optimizeQuality; fill-rule:evenodd; clip-rule:evenodd" xmlns:xlink="http://www.w3.org/1999/xlink">
<g><path style="opacity:1" fill="#fcfcfc" d="M 255.5,13.5 C 359.859,9.89279 451.525,41.7261 530.5,109C 534.702,112.867 538.535,117.033 542,121.5C 546.35,133.796 542.85,142.962 531.5,149C 523.906,151.021 516.906,149.687 510.5,145C 461.28,99.0566 403.28,70.0566 336.5,58C 223.767,41.0852 125.433,70.7518 41.5,147C 28.7697,152.859 18.9364,149.692 12,137.5C 10.6695,130.715 11.6695,124.382 15,118.5C 82.6216,55.2838 162.788,20.2838 255.5,13.5 Z"/></g>
<g><path style="opacity:1" fill="#fdfdfd" d="M 262.5,89.5 C 380.884,89.106 474.384,136.773 543,232.5C 543.52,234.289 543.187,235.956 542,237.5C 505.945,287.227 460.445,325.727 405.5,353C 300.974,397.946 200.974,389.613 105.5,328C 70.0795,302.58 39.2461,272.413 13,237.5C 11.8129,235.956 11.4795,234.289 12,232.5C 73.1838,146.147 156.684,98.4802 262.5,89.5 Z M 192.5,140.5 C 150.835,180.5 139.668,227.833 159,282.5C 167.696,300.922 179.529,316.922 194.5,330.5C 168.248,322.04 143.914,309.874 121.5,294C 97.7592,276.947 76.7592,256.947 58.5,234C 93.6875,189.323 138.354,158.156 192.5,140.5 Z M 362.5,140.5 C 416.646,158.156 461.313,189.323 496.5,234C 460.787,278.783 415.953,310.949 362,330.5C 361.5,330.333 361,330.167 360.5,330C 363.331,328.334 365.664,326.168 367.5,323.5C 370.5,321.167 373.167,318.5 375.5,315.5C 410.799,270.006 414.966,221.672 388,170.5C 380.731,159.402 372.231,149.402 362.5,140.5 Z M 230.5,156.5 C 253.078,154.029 268.244,163.363 276,184.5C 279.981,206.039 272.148,221.539 252.5,231C 228.497,237.414 211.664,229.248 202,206.5C 197.293,181.567 206.793,164.9 230.5,156.5 Z"/></g>
<g><path style="opacity:1" fill="#eaebea" d="M 375.5,315.5 C 373.167,318.5 370.5,321.167 367.5,323.5C 367.586,322.504 367.252,321.671 366.5,321C 368.019,319.649 369.352,318.149 370.5,316.5C 372.045,315.548 373.712,315.215 375.5,315.5 Z"/></g>
</svg>
